<mxfile host="drawio-plugin" modified="2022-01-15T12:22:07.565Z" agent="5.0 (Macintosh; Intel Mac OS X 11_5_2) AppleWebKit/537.36 (KHTML, like Gecko) Chrome/89.0.4389.114 Safari/537.36" version="14.7.4" etag="9bY9Zgp3vyhi5_2FxunJ" type="embed"><diagram id="yfPx3KgmZRJuuDZsZWZM" name="ページ1"><mxGraphModel dx="682" dy="417" grid="1" gridSize="10" guides="1" tooltips="1" connect="1" arrows="1" fold="1" page="1" pageScale="1" pageWidth="827" pageHeight="1169" math="0" shadow="0"><root><mxCell id="0"/><mxCell id="1" parent="0"/><mxCell id="5" style="edgeStyle=none;html=1;entryX=0.5;entryY=1;entryDx=0;entryDy=0;" parent="1" edge="1"><mxGeometry relative="1" as="geometry"><mxPoint x="100" y="230" as="targetPoint"/><mxPoint x="100" y="169.9999999999999" as="sourcePoint"/><Array as="points"><mxPoint x="100" y="100"/><mxPoint x="280" y="100"/><mxPoint x="280" y="300"/><mxPoint x="100" y="300"/></Array></mxGeometry></mxCell><mxCell id="6" value="認識する度に&lt;br&gt;音楽が流れてしまう。" style="edgeLabel;html=1;align=center;verticalAlign=middle;resizable=0;points=[];" parent="5" vertex="1" connectable="0"><mxGeometry x="-0.04" y="1" relative="1" as="geometry"><mxPoint as="offset"/></mxGeometry></mxCell><mxCell id="3" value="while内&lt;br&gt;(骨格ジェスチャー認識)" style="label;whiteSpace=wrap;html=1;image=img/clipart/Gear_128x128.png" parent="1" vertex="1"><mxGeometry x="10" y="170" width="200" height="60" as="geometry"/></mxCell><mxCell id="12" style="edgeStyle=none;html=1;entryX=0;entryY=0.5;entryDx=0;entryDy=0;" parent="1" source="7" target="11" edge="1"><mxGeometry relative="1" as="geometry"><mxPoint x="590" y="189.9999999999999" as="sourcePoint"/></mxGeometry></mxCell><mxCell id="18" value="コマンド送信" style="edgeLabel;html=1;align=center;verticalAlign=middle;resizable=0;points=[];" parent="12" vertex="1" connectable="0"><mxGeometry x="0.0833" y="3" relative="1" as="geometry"><mxPoint as="offset"/></mxGeometry></mxCell><mxCell id="7" value="while内&lt;br&gt;(骨格ジェスチャー認識)" style="label;whiteSpace=wrap;html=1;image=img/clipart/Gear_128x128.png" parent="1" vertex="1"><mxGeometry x="370" y="190" width="190" height="60" as="geometry"/></mxCell><mxCell id="8" value="" style="endArrow=none;dashed=1;html=1;dashPattern=1 3;strokeWidth=2;" parent="1" edge="1"><mxGeometry width="50" height="50" relative="1" as="geometry"><mxPoint x="353" y="360" as="sourcePoint"/><mxPoint x="350" y="30" as="targetPoint"/></mxGeometry></mxCell><mxCell id="9" value="以前までの問題点" style="text;html=1;strokeColor=none;fillColor=none;align=center;verticalAlign=middle;whiteSpace=wrap;rounded=0;" parent="1" vertex="1"><mxGeometry x="130" y="10" width="110" height="20" as="geometry"/></mxCell><mxCell id="10" value="改善策" style="text;html=1;strokeColor=none;fillColor=none;align=center;verticalAlign=middle;whiteSpace=wrap;rounded=0;" parent="1" vertex="1"><mxGeometry x="530" y="10" width="110" height="20" as="geometry"/></mxCell><mxCell id="11" value="" style="rounded=1;whiteSpace=wrap;html=1;arcSize=7;" parent="1" vertex="1"><mxGeometry x="650" y="100" width="170" height="240" as="geometry"/></mxCell><mxCell id="13" value="thread" style="text;html=1;strokeColor=none;fillColor=none;align=center;verticalAlign=middle;whiteSpace=wrap;rounded=0;" parent="1" vertex="1"><mxGeometry x="685" y="110" width="80" height="20" as="geometry"/></mxCell><mxCell id="15" value="music" style="label;whiteSpace=wrap;html=1;image=img/clipart/Gear_128x128.png" parent="1" vertex="1"><mxGeometry x="670" y="150" width="110" height="60" as="geometry"/></mxCell><mxCell id="16" value="light" style="label;whiteSpace=wrap;html=1;image=img/clipart/Gear_128x128.png" parent="1" vertex="1"><mxGeometry x="670" y="230" width="110" height="60" as="geometry"/></mxCell><mxCell id="17" value="コマンドがいっぱい送られきた時に制御する&lt;br&gt;(semaphoreでブロックする)" style="shape=callout;whiteSpace=wrap;html=1;perimeter=calloutPerimeter;" parent="1" vertex="1"><mxGeometry x="520" y="40" width="300" height="80" as="geometry"/></mxCell></root></mxGraphModel></diagram></mxfile>